<?xml version="1.0" encoding="UTF-8" standalone="no"?>
<!DOCTYPE svg PUBLIC "-//W3C//DTD SVG 1.1//EN" "http://www.w3.org/Graphics/SVG/1.1/DTD/svg11.dtd">
<svg version="1.1" xmlns="http://www.w3.org/2000/svg" xmlns:xlink="http://www.w3.org/1999/xlink" preserveAspectRatio="xMidYMid meet" viewBox="0 0 640 640" width="640" height="640"><defs><path d="M224.79 179.89C224.79 193.41 273.41 204.39 333.29 204.39C393.17 204.39 441.79 193.41 441.79 179.89C441.79 166.37 393.17 155.39 333.29 155.39C273.41 155.39 224.79 166.37 224.79 179.89Z" id="baBwlVyVc"></path><path d="M450.38 194C461.91 194 470.94 203.92 469.87 215.4C463.34 285.58 445.44 477.86 438.83 548.83C437.9 558.75 429.58 566.34 419.61 566.34C381.46 566.34 285.45 566.34 247.52 566.34C236.96 566.34 228.14 558.29 227.17 547.78C220.67 477.02 203.08 285.59 196.64 215.4C195.58 203.91 204.62 194 216.15 194C267.3 194 399.24 194 450.38 194Z" id="dlmiciv5o"></path><path d="M472.86 191.45C477.07 191.45 480.47 194.86 480.47 199.06C480.47 201.76 480.47 202.26 480.47 204.97C480.47 209.17 477.07 212.58 472.86 212.58C415.31 212.58 250.28 212.58 192.73 212.58C188.52 212.58 185.11 209.17 185.11 204.97C185.11 202.26 185.11 201.76 185.11 199.06C185.11 194.86 188.52 191.45 192.73 191.45C250.28 191.45 415.31 191.45 472.86 191.45Z" id="hwqOwhOic"></path><path d="M609.48 195.45L217.7 195.45L190.11 195.45L609.48 195.45Z" id="cfSWkFrfp"></path><path d="M454.69 176.89C457.86 176.89 460.8 178.58 462.4 181.32C464.19 184.38 466.17 187.78 467.76 190.5C469.35 193.22 467.38 196.64 464.23 196.64C410.43 196.64 256.15 196.64 202.35 196.64C199.2 196.64 197.24 193.22 198.83 190.5C200.41 187.78 202.39 184.38 204.18 181.32C205.78 178.58 208.72 176.89 211.89 176.89C261.48 176.89 405.11 176.89 454.69 176.89Z" id="a72AAgmAZK"></path><path d="M362.65 363.77C338.41 326.02 315.27 329.23 293.22 373.39" id="aadBRh1zI"></path><path d="M292.87 421.91C296.6 387.98 286.98 381.15 264 401.43" id="a1sHAALPbY"></path><path d="M335.09 355C362.62 375.19 373.34 370.27 367.27 340.23" id="a6FBkawdb7"></path><path d="M286.69 393.66C266.12 433.53 280.47 451.97 329.74 448.98" id="bathKvqmNI"></path><path d="M349.78 445.36C394.59 443.24 403.39 421.6 376.16 380.42" id="b4PpMu1um"></path><path d="M371.16 425.88C339.91 439.62 338.8 451.37 367.86 461.13" id="l2PpzzbIcN"></path></defs><g><g><g><use xlink:href="#baBwlVyVc" opacity="1" fill="#405363" fill-opacity="1"></use><g><use xlink:href="#baBwlVyVc" opacity="1" fill-opacity="0" stroke="#761479" stroke-width="0" stroke-opacity="1"></use></g></g><g><use xlink:href="#dlmiciv5o" opacity="1" fill="#1a92f3" fill-opacity="1"></use></g><g><use xlink:href="#hwqOwhOic" opacity="1" fill="#0079e6" fill-opacity="1"></use></g><g><use xlink:href="#cfSWkFrfp" opacity="1" fill="#0079e6" fill-opacity="1"></use></g><g><use xlink:href="#a72AAgmAZK" opacity="1" fill="#0079e6" fill-opacity="1"></use></g><g><g><use xlink:href="#aadBRh1zI" opacity="1" fill-opacity="0" stroke="#efe2e2" stroke-width="7" stroke-opacity="1"></use></g></g><g><g><use xlink:href="#a1sHAALPbY" opacity="1" fill-opacity="0" stroke="#efe2e2" stroke-width="7" stroke-opacity="1"></use></g></g><g><g><use xlink:href="#a6FBkawdb7" opacity="1" fill-opacity="0" stroke="#efe2e2" stroke-width="7" stroke-opacity="1"></use></g></g><g><g><use xlink:href="#bathKvqmNI" opacity="1" fill-opacity="0" stroke="#efe2e2" stroke-width="7" stroke-opacity="1"></use></g></g><g><g><use xlink:href="#b4PpMu1um" opacity="1" fill-opacity="0" stroke="#efe2e2" stroke-width="7" stroke-opacity="1"></use></g></g><g><g><use xlink:href="#l2PpzzbIcN" opacity="1" fill-opacity="0" stroke="#efe2e2" stroke-width="7" stroke-opacity="1"></use></g></g></g></g></svg>